<?xml version="1.0" encoding="utf-8" ?>
<svg xmlns="http://www.w3.org/2000/svg" xmlns:xlink="http://www.w3.org/1999/xlink" width="512" height="512">
	<path fill="#FEFEFE" transform="matrix(1.024 0 0 1.024 6.10352e-05 0)" d="M0 0L50.5474 0L449.369 0L500 0L500 51.052L500 449.171L500 500L449.683 500L50.5931 500L0 500L0 449.642L0 50.2706L0 0ZM0 449.642L0 500L50.5931 500C40.5749 497.862 35.2159 497.227 26.0293 491.432C15.0852 484.528 6.52472 473.666 2.65502 461.293C1.45328 457.45 0.873954 453.552 0 449.642ZM0 0L0 50.2706C1.71924 40.7363 4.25265 32.2573 9.80438 24.1474C16.8995 13.7829 27.674 5.87198 39.7215 2.29263C43.2765 1.23646 46.9122 0.683877 50.5474 0L0 0ZM500 449.171C499.399 452.744 498.864 456.318 497.854 459.804C494.387 471.769 486.782 482.426 476.648 489.654C468.344 495.577 459.565 498.226 449.683 500L500 500L500 449.171ZM449.369 0C453.127 0.669004 456.886 1.24607 460.547 2.35972C472.3 5.93485 482.824 13.6056 489.88 23.6484C494.145 29.7189 497.215 36.6002 498.763 43.8612C499.268 46.2344 499.446 48.708 500 51.052L500 0L449.369 0Z"/>
	<path fill="#173E63" transform="matrix(1.024 0 0 1.024 6.10352e-05 0)" d="M53.6862 9.35812C63.8102 9.08042 73.9848 9.30371 84.115 9.30418L140.916 9.30427L312.703 9.3023L405.828 9.30096L433.177 9.29189C439.296 9.28514 445.562 9.00339 451.642 9.74751C460.002 10.7706 468.723 15.2063 474.936 20.8147C484.139 29.1229 490.011 40.3042 490.6 52.7638C491.048 62.2366 490.69 71.8769 490.689 81.3662L490.689 135.89L490.691 301.793L490.698 402.529L490.702 432.329C490.702 438.574 491.039 445.047 490.263 451.249C489.176 459.937 484.827 468.772 478.925 475.208C470.2 484.724 459.226 490.107 446.312 490.617C436.575 491.009 426.728 490.702 416.98 490.701L362.064 490.701L194.773 490.703L96.3181 490.706L67.4255 490.715C61.1154 490.72 54.6282 491.025 48.3616 490.256C40.1921 489.253 31.5856 484.973 25.4552 479.551C16.0153 471.202 10.0585 459.906 9.39554 447.262C8.90626 437.93 9.30254 428.398 9.30277 419.043L9.30273 365.74L9.30074 201.228L9.29197 98.5725L9.28822 67.9705C9.28805 61.5807 8.94336 54.9435 9.73267 48.5942C10.7935 40.061 15.3038 31.0956 21.074 24.7868C29.8226 15.2214 40.7503 9.95025 53.6862 9.35812Z"/>
	<path fill="#FE7118" transform="matrix(1.024 0 0 1.024 6.10352e-05 0)" d="M52.9495 22.6029C53.0282 22.5958 53.1066 22.5869 53.1854 22.5818C61.1294 22.0618 69.3664 22.5022 77.3336 22.5079L124.27 22.5112L270.805 22.5073L390.844 22.5125L427.659 22.5037C434.233 22.4924 441.115 22.0476 447.645 22.6438C454.494 23.2693 461.079 26.1791 466.301 30.6315C472.966 36.3147 477.163 44.5328 477.853 53.2545C478.486 61.2483 478.04 69.5412 478.031 77.5645L478.022 121.698L478.023 262.494L478.024 387.898L478.029 426.264C478.038 433.463 478.484 440.952 477.802 448.106C477.135 455.092 474.402 461.487 469.812 466.808C464.021 473.521 455.672 477.715 446.848 478.396C446.815 478.401 446.782 478.407 446.749 478.409C438.871 478.948 430.678 478.488 422.765 478.488L375.379 478.487L228.666 478.487L108.773 478.488L71.8158 478.491C65.3664 478.497 58.5693 478.946 52.1593 478.329C45.7091 477.708 39.5181 475.019 34.4851 470.962C27.7964 465.57 23.1559 457.435 22.2677 448.855C21.5229 441.662 21.9658 434.092 21.9727 426.85L21.9761 388.984L21.9745 263.216L21.9708 121.828L21.9614 77.059C21.9609 69.1642 21.5023 60.9399 22.1787 53.0752C22.7592 46.3249 25.3744 39.9818 29.678 34.7456C35.4638 27.706 43.9239 23.446 52.9495 22.6029Z"/>
	<path fill="#173E63" transform="matrix(1.024 0 0 1.024 6.10352e-05 0)" d="M55.4284 31.3721L324.588 31.377L407.913 31.3786L432.933 31.3564C437.636 31.3491 442.543 31.0633 447.215 31.5429C452.368 32.072 457.245 34.3797 461.064 37.8611C466.38 42.707 468.908 49.2853 469.203 56.3787C469.57 65.1985 469.237 74.1495 469.23 82.9864L469.226 133.94L469.228 291.806L469.234 396.07L469.234 428.664C469.234 434.534 469.579 440.668 469.036 446.509C468.496 452.315 466.414 457.447 462.405 461.75C457.839 466.651 451.763 469.352 445.099 469.594L176.833 469.596L93.0474 469.593L66.6932 469.616C62.1578 469.621 57.3934 469.905 52.8823 469.478C47.8046 468.998 42.7558 466.58 39.0187 463.149C33.7905 458.348 31.1439 452.034 30.8569 445C30.4781 435.715 30.7743 426.307 30.7794 417.007L30.7848 365.96L30.7812 209.05L30.7797 104.745L30.7673 72.1607C30.7655 66.2817 30.4134 60.1832 30.9613 54.3379C31.4954 48.6399 33.6351 43.4765 37.5501 39.2564C42.2843 34.1532 48.5429 31.6077 55.4284 31.3721Z"/>
	<path fill="#FEFEFE" transform="matrix(1.024 0 0 1.024 6.10352e-05 0)" d="M200.383 45.6052L209.784 45.6413L209.777 94.7444L209.753 109.968C209.749 111.876 209.904 113.813 209.819 115.715C209.793 116.29 209.778 116.655 209.467 117.158L208.812 117.262L199.235 117.232L199.238 68.6161C199.238 61.7503 198.969 54.7849 199.14 47.932C199.158 47.1805 199.146 46.4067 199.552 45.7502L200.383 45.6052Z"/>
	<path fill="#FEFEFE" transform="matrix(1.024 0 0 1.024 6.10352e-05 0)" d="M161.336 288.323C161.992 288.401 162.798 288.433 163.412 288.684C165.705 289.626 166.639 293.522 167.487 295.624C166.884 296.292 166.311 296.988 165.758 297.698C162.801 301.494 158.713 309.59 159.311 314.515L159.65 314.805L159.574 315.091L160.049 315.989C159.683 316.308 159.861 316.224 159.562 316.327C157.934 316.243 156.91 316.29 155.639 317.396C154.509 318.379 153.762 319.769 153.735 321.283C153.711 322.67 154.294 323.929 155.289 324.881C157.43 326.931 161.145 326.803 163.875 327.556C163.727 327.594 163.58 327.634 163.432 327.67C162.91 327.799 162.496 327.793 161.964 327.759L161.431 328.209C161.628 328.624 161.764 328.688 162.13 328.944L161.881 329.087C161.97 329.379 161.984 329.462 162.149 329.767C169.083 342.552 193.415 341.472 205.848 340.946C209.694 340.783 213.721 340.276 217.56 340.515C219.838 340.658 221.921 341.132 224.128 341.709C211.619 344.207 197.422 350.156 184.8 350.49C176.808 350.702 166.103 347.73 160.239 342.063C153.094 335.156 149.406 325.035 149.312 315.221C149.208 304.406 153.935 295.811 161.336 288.323Z"/>
	<path fill="#173E63" transform="matrix(1.024 0 0 1.024 6.10352e-05 0)" d="M159.311 314.515L159.65 314.805L159.574 315.091L160.049 315.989C159.683 316.308 159.861 316.224 159.562 316.327C157.934 316.243 156.91 316.29 155.639 317.396C154.509 318.379 153.762 319.769 153.735 321.283C153.711 322.67 154.294 323.929 155.289 324.881C157.43 326.931 161.145 326.803 163.875 327.556C163.727 327.594 163.58 327.634 163.432 327.67C162.91 327.799 162.496 327.793 161.964 327.759L161.431 328.209C161.628 328.624 161.764 328.688 162.13 328.944L161.881 329.087C159.147 328.149 156.312 328.406 154.053 326.243C152.675 324.923 151.989 323.113 152.028 321.217C152.067 319.283 152.9 317.415 154.335 316.113C155.848 314.74 157.319 314.407 159.311 314.515Z"/>
	<path fill="#FE7118" transform="matrix(1.024 0 0 1.024 6.10352e-05 0)" d="M301.779 154.37C306.32 156.839 311.213 158.653 315.761 161.177C332.393 170.403 346.637 183.567 357.084 199.469C373.89 225.047 379.861 256.858 373.655 286.82C369.388 307.418 359.597 326.264 345.468 341.81C342.889 344.646 339.966 348.247 336.702 350.3C335.719 350.918 335.089 350.696 334.032 350.439L331.231 349.917C333.952 347.387 336.805 345.028 339.42 342.381C349.797 331.874 358.032 319.335 363.627 305.676C374.899 278.161 374.73 246.915 363.186 219.513C351.211 191.087 328.421 169.772 300.028 158.214L301.779 154.37Z"/>
	<path fill="#FEFEFE" transform="matrix(1.024 0 0 1.024 6.10352e-05 0)" d="M162.01 45.6217C172.919 45.6632 183.84 45.7158 194.747 45.5848L194.737 55.9619L182.711 55.979C182.443 72.9297 182.685 89.92 182.686 106.875L182.679 117.264L172.031 117.22L172.026 55.9416L159.933 55.9332C159.891 52.6934 159.581 49.2614 159.977 46.0513C160.594 45.5888 161.254 45.6824 162.01 45.6217Z"/>
	<path fill="#FEFEFE" transform="matrix(1.024 0 0 1.024 6.10352e-05 0)" d="M114.617 45.625C116.559 45.6458 118.497 45.6769 120.437 45.5861C120.434 49.0447 120.403 52.4999 120.333 55.9577L108.315 55.964L108.277 117.244C104.726 117.283 101.171 117.246 97.6197 117.244L97.615 111.125L97.6463 55.9299C93.6238 56.0123 89.5899 55.966 85.566 55.9811C85.4564 52.5558 85.5377 49.1087 85.5458 45.6808C95.2203 45.4509 104.938 45.6315 114.617 45.625Z"/>
	<path fill="#FEFEFE" transform="matrix(1.024 0 0 1.024 6.10352e-05 0)" d="M365.663 45.6243C367.933 45.6426 370.216 45.7137 372.482 45.5487L372.454 56.0725C364.349 56.1847 356.22 56.1096 348.114 56.0568C348.223 62.7826 348.157 69.5205 348.184 76.2481L367.154 76.2716C367.233 79.6807 367.171 83.0989 367.154 86.509C360.803 86.6258 354.437 86.5435 348.084 86.5439C348.475 93.2302 348.16 100.106 348.117 106.813L366.125 106.788L372.46 106.79C372.505 110.28 372.47 113.773 372.469 117.263L337.711 117.24L337.732 45.7051C346.991 45.3013 356.389 45.6263 365.663 45.6243Z"/>
	<path fill="#FEFEFE" transform="matrix(1.024 0 0 1.024 6.10352e-05 0)" d="M325.913 45.6242C328.105 45.6416 330.299 45.6889 332.488 45.5646L332.456 56.082L308.226 56.0522L308.242 76.2546L327.149 76.2638C327.228 79.6762 327.168 83.0981 327.154 86.5117C320.846 86.6205 314.524 86.5404 308.215 86.5377L308.22 106.835L327.125 106.786L332.461 106.795C332.518 110.282 332.473 113.775 332.472 117.263L297.7 117.237C297.566 106.2 297.68 95.1445 297.678 84.1048C297.675 71.3092 297.573 58.5045 297.722 45.7104C307.067 45.2988 316.552 45.6262 325.913 45.6242Z"/>
	<path fill="#FE7118" transform="matrix(1.024 0 0 1.024 6.10352e-05 0)" d="M147.226 286.219C151.044 287.089 154.933 287.71 158.813 288.232C153.687 293.525 149.704 299.264 147.962 306.525C145.508 316.755 147.632 328.079 153.113 336.992C167.653 360.638 192.642 352.239 214.349 346.347C218.445 345.235 223.189 343.427 227.418 343.175C230.826 342.971 240.072 345.418 244.027 346.209C247.599 346.925 251.224 347.447 254.765 348.305C253.671 348.547 252.547 348.687 251.44 348.857C239.351 350.214 227.57 353.155 215.848 356.324C206.981 358.721 197.999 361.511 188.838 362.476C176.429 363.784 164.309 361.73 154.443 353.7C144.388 345.517 138.385 333.072 137.161 320.269C135.972 307.836 139.286 295.905 147.226 286.219Z"/>
	<path fill="#FEFEFE" transform="matrix(1.024 0 0 1.024 6.10352e-05 0)" d="M59.9234 45.6232C65.4353 45.5756 73.711 44.5531 78.0019 48.7137C82.5028 53.0779 81.2728 62.4241 81.2301 68.2379C77.661 68.2926 74.0853 68.2454 70.5154 68.2421C70.4682 65.3128 71.5117 59.4201 69.2994 57.2504C68.0432 56.0184 66.1263 55.8809 64.4629 55.8422C62.3677 55.7934 59.8516 55.7245 58.2685 57.3405C57.5639 58.0598 57.1969 59.0278 57.0212 60.0044C56.4692 63.0723 56.9847 70.2982 57.0084 73.8378C61.746 75.5272 77.7831 79.832 80.6429 82.1849C81.0929 82.5551 81.1861 83.5055 81.2346 84.0542C81.4488 86.4795 81.2239 89.0192 81.2296 91.4579C81.2424 96.9557 81.9258 103.278 80.7968 108.637C80.4124 110.462 79.6811 112.219 78.4505 113.639C75.9034 116.579 72.3351 117.074 68.6888 117.247C62.8786 117.294 53.8969 118.5 49.4531 114.082C45.0423 109.697 46.3704 100.478 46.4423 94.735L57.0092 94.7526C56.9687 98.0162 56.7605 101.415 57.3654 104.63C57.6806 105.038 57.9991 105.46 58.3657 105.823C60.2149 107.654 65.6348 106.811 68.0598 106.683C68.5257 106.344 69.0329 106.008 69.4309 105.588C71.4172 103.496 70.5123 92.7849 70.5578 89.4563C66.4951 88.418 49.2045 82.9346 46.4985 81.124L46.4506 80.4683C46.1977 76.4822 46.3961 72.376 46.3917 68.374C46.3867 63.8664 45.8343 58.5044 46.7523 54.1146C47.1449 52.2371 47.9144 50.482 49.2259 49.0616C52.0704 45.9813 56.0178 45.7092 59.9234 45.6232Z"/>
	<path fill="#FEFEFE" transform="matrix(1.024 0 0 1.024 6.10352e-05 0)" d="M432.248 45.6243C437.726 45.5946 446.349 44.4845 450.611 48.7606C454.794 52.9586 453.667 62.6301 453.645 68.2601L442.974 68.212C443.005 65.5249 443.273 62.5933 442.901 59.9409C442.731 58.7287 442.412 57.5034 441.367 56.7606C439.442 55.3914 435.416 55.6435 433.167 56.1509C431.267 56.5793 430.553 57.1875 429.546 58.8343C429.335 63.843 429.486 68.9019 429.493 73.9163C433.577 75.07 437.618 76.4965 441.655 77.8067C445.521 79.0612 449.918 80.0888 453.448 82.0895C453.487 82.3994 453.518 82.7104 453.544 83.0217C453.883 87.0903 453.982 105.037 453.276 108.687C452.918 110.542 452.155 112.324 450.89 113.745C448.293 116.663 444.609 117.108 440.952 117.251C435.245 117.302 426.24 118.481 421.869 113.999C417.514 109.533 418.719 100.549 418.76 94.7651L429.472 94.7193C429.525 97.5387 428.65 102.617 430.198 104.991C430.844 105.982 431.901 106.501 433.03 106.739C434.866 107.125 440.022 107.225 441.495 106.054C443.886 104.153 442.998 92.8562 443.03 89.5368C438.961 88.1029 421.558 83.067 419.473 81.2868C418.743 80.6632 418.73 79.4088 418.7 78.5049C418.604 75.5804 418.764 72.5981 418.746 69.6645C418.715 64.7239 418.08 58.8748 419.214 54.058C419.672 52.1113 420.544 50.2931 421.961 48.8619C424.804 45.9905 428.46 45.7128 432.248 45.6243Z"/>
	<path fill="#FEFEFE" transform="matrix(1.024 0 0 1.024 6.10352e-05 0)" d="M134.134 45.6133L147.119 45.6077C152.258 69.4678 157.098 93.453 162.621 117.224C159.027 117.28 155.428 117.251 151.832 117.258C151.041 112.332 149.966 107.423 149.087 102.508L146.611 102.485L131.29 102.468C130.149 107.356 129.553 112.379 128.449 117.286L117.769 117.237C119.421 110.554 120.728 103.753 122.179 97.0228L129.733 62.1103C130.517 58.484 131.346 54.8597 132.072 51.2217C132.359 49.784 132.473 47.6128 133.065 46.3064C133.32 45.7419 133.58 45.7846 134.134 45.6133Z"/>
	<path fill="#173E63" transform="matrix(1.024 0 0 1.024 6.10352e-05 0)" d="M139.837 56.3252L139.951 56.2549C140.078 56.3676 140.24 56.4505 140.333 56.5931C140.804 57.3166 145.986 89.1791 147.201 93.685L140.738 93.6997L133.166 93.7352C135.634 81.3041 137.65 68.8002 139.837 56.3252Z"/>
	<path fill="#FEFEFE" transform="matrix(1.024 0 0 1.024 6.10352e-05 0)" d="M163.875 327.556C161.145 326.803 157.43 326.931 155.289 324.881C154.294 323.929 153.711 322.67 153.735 321.283C153.762 319.769 154.509 318.379 155.639 317.396C156.91 316.29 157.934 316.243 159.562 316.327C164.659 317.791 170.163 318.58 175.374 319.632L205.128 325.652L300.307 344.973L324.464 349.882C327.82 350.533 331.142 351.322 334.485 351.994C336.174 352.334 337.944 352.473 339.591 352.979C340.916 353.386 342.245 354.064 342.965 355.303C343.636 356.457 343.718 358.047 343.373 359.318C342.991 360.725 341.957 361.761 340.687 362.419C340.315 362.613 339.931 362.793 339.55 362.967C333.922 362.201 328.319 360.842 322.753 359.714L293.434 353.757L206.34 336.103L176.605 330.018C172.961 329.275 167.37 327.685 163.875 327.556Z"/>
	<path fill="#FEFEFE" transform="matrix(1.024 0 0 1.024 6.10352e-05 0)" d="M256.551 45.6203C259.462 45.6316 262.369 45.6496 265.279 45.5543C268.81 54.5521 271.862 63.7937 275.109 72.901C276.615 77.1253 277.982 81.4725 279.83 85.56C280.423 85.9223 280.546 85.8507 281.251 85.7946C281.378 85.6675 281.569 85.5816 281.632 85.4133C282.059 84.2651 281.738 49.6364 281.752 45.7222C285.318 45.5434 288.892 45.7335 292.461 45.5867C292.444 52.9257 292.959 115.709 292.186 117.25C288.852 117.282 285.519 117.257 282.185 117.238C279.144 107.567 275.328 97.9921 271.899 88.446C271.15 86.3609 268.831 78.7965 267.851 77.3315C267.704 77.1123 267.45 76.9885 267.25 76.817C266.648 76.7363 266.528 76.7059 265.978 76.9417C265.287 78.994 265.727 112.1 265.726 117.263L255.217 117.227L255.197 60.5944C255.197 58.745 254.938 46.9426 255.214 46.1195C255.266 45.9633 255.405 45.8513 255.501 45.7171L256.551 45.6203Z"/>
	<path fill="#FEFEFE" transform="matrix(1.024 0 0 1.024 6.10352e-05 0)" d="M395.362 45.6243C399.058 45.6086 403.232 45.2332 406.773 46.4791C409.358 47.3888 411.331 49.1457 412.445 51.6581C412.929 52.7491 413.218 53.8879 413.35 55.0723C413.844 59.5165 413.54 64.2683 413.539 68.7466C413.539 73.2391 413.814 77.9515 413.399 82.4151C413.268 83.8255 412.996 85.3527 412.456 86.664C411.384 89.2689 409.141 90.8604 406.657 91.9653C409.362 100.213 411.047 108.881 413.452 117.233L402.801 117.271C401.183 110.643 399.296 104.057 397.55 97.4599C397.108 95.8337 396.663 94.2267 396.388 92.562L388.434 92.5482L388.392 117.242C384.833 117.29 381.27 117.245 377.712 117.236L377.732 45.7058C383.574 45.4389 389.51 45.6286 395.362 45.6243Z"/>
	<path fill="#173E63" transform="matrix(1.024 0 0 1.024 6.10352e-05 0)" d="M388.447 55.9301C392.32 56.0788 398.632 54.9224 401.852 57.1696C402.428 58.1521 402.655 59.1673 402.8 60.2932C403.241 63.7169 403.226 76.0501 402.667 79.1435C402.52 79.9602 402.226 80.538 401.733 81.1976C398.193 83.4389 392.499 82.2448 388.415 82.4511L388.447 55.9301Z"/>
	<path fill="#FEFEFE" transform="matrix(1.024 0 0 1.024 6.10352e-05 0)" d="M228.335 45.6235C233.773 45.5837 241.752 44.5416 246.198 48.2679C248.746 50.4033 249.518 53.2722 249.71 56.4478C249.933 60.1376 249.813 63.8857 249.816 67.5837L249.819 87.1028L249.811 99.8819C249.807 102.657 249.962 105.626 249.526 108.369C249.2 110.421 248.447 112.275 247.023 113.812C244.269 116.785 240.386 117.167 236.588 117.257C231.048 117.306 222.665 118.423 218.28 114.277C215.556 111.702 215.137 108.316 215.015 104.782C214.669 94.8238 214.961 84.7546 214.962 74.7864C214.963 68.8364 214.41 60.5094 215.323 54.8532C215.7 52.5186 216.228 50.69 217.922 48.9406C220.75 46.0204 224.527 45.7216 228.335 45.6235Z"/>
	<path fill="#173E63" transform="matrix(1.024 0 0 1.024 6.10352e-05 0)" d="M229.421 55.6074C232.499 55.4885 236.419 55.013 238.972 57.0099C239.464 58.4038 239.652 59.9012 239.726 61.3729C239.968 66.223 240.188 103.635 239.285 105.265C238.602 106.5 237.186 106.897 235.92 107.245C234.231 107.293 232.514 107.393 230.826 107.337C228.982 107.275 227.35 106.993 226.06 105.587C225.738 104.221 225.516 102.875 225.446 101.472C225.087 94.301 225.397 86.9829 225.396 79.7955C225.395 73.2089 225.066 66.4308 225.438 59.8601C225.48 59.1226 225.55 58.4179 225.929 57.7668C226.735 56.3797 227.927 55.9439 229.421 55.6074Z"/>
	<path fill="#FE7118" transform="matrix(1.024 0 0 1.024 6.10352e-05 0)" d="M166.225 289.69L200.044 295.896C207.057 297.17 214.265 298.162 221.199 299.773C227.718 301.288 230.028 305.155 238.317 305.665C247.807 306.248 254.752 303.028 261.708 296.823C266.454 302.702 271.53 308.364 276.451 314.099L300.181 341.739L302.079 343.995C274.336 337.968 246.415 332.612 218.592 326.962L184.177 319.968C177.271 318.565 170.356 317.008 163.402 315.873C165.471 312.458 167.37 308.791 168.56 304.973C170.338 299.27 168.922 294.808 166.225 289.69Z"/>
	<path fill="#FEFEFE" transform="matrix(1.024 0 0 1.024 6.10352e-05 0)" d="M255.381 141.608C267.889 140.668 283.809 143.043 295.764 146.782C297.336 147.274 299.588 148.107 300.327 149.716C300.885 150.93 300.519 152.646 300.16 153.866C298.92 158.074 296.967 162.208 295.388 166.308L286.18 190.444L274.912 219.905C272.897 225.176 271.102 230.629 268.747 235.752C267.576 238.299 266.29 240.778 264.819 243.169C263.337 245.578 259.072 250.581 258.503 252.949C257.867 255.595 261.99 258.638 263.379 260.548C267.545 266.278 269.12 274.118 267.872 281.033C266.569 288.254 262.387 294.606 256.366 298.767C248.914 303.918 239.058 304.905 230.708 301.375C228.213 300.32 226.038 298.497 223.414 297.748C220.938 297.041 218.218 296.729 215.677 296.278L201.552 293.74C187.454 290.888 173.196 288.564 159.038 286.005C153.331 284.973 147.477 284.168 141.84 282.838C140.849 282.604 139.28 282.289 138.512 281.62C136.866 280.186 136.744 276.859 136.627 274.824C134.625 240 144.978 208.273 168.285 182.144C190.917 156.773 221.764 143.494 255.381 141.608Z"/>
	<path fill="#173E63" transform="matrix(1.024 0 0 1.024 6.10352e-05 0)" d="M239.247 253.845C244.949 253.368 250.636 255.032 255.129 258.594C259.811 262.306 262.893 267.924 263.505 273.868C264.122 279.861 262.37 285.841 258.534 290.502C254.583 295.303 249.233 298.04 243.08 298.647C243.065 298.65 243.049 298.654 243.033 298.655C237.378 299.112 231.965 297.625 227.461 294.141C222.717 290.473 219.565 284.926 218.822 278.971C218.085 273.071 219.809 267.021 223.491 262.36C227.427 257.377 232.983 254.539 239.247 253.845Z"/>
	<path fill="#FEFEFE" transform="matrix(1.024 0 0 1.024 6.10352e-05 0)" d="M239.671 255.591C244.521 255.29 249.389 256.62 253.327 259.495C257.651 262.651 260.679 267.445 261.501 272.751C262.374 278.381 261.092 284.189 257.649 288.755C254.141 293.408 249.262 295.951 243.563 296.755C238.093 297.144 233.224 296.184 228.76 292.862C224.288 289.533 221.416 284.562 220.663 279.05C219.913 273.57 221.362 268.034 224.73 263.64C228.482 258.743 233.671 256.366 239.671 255.591Z"/>
	<path fill="#173E63" transform="matrix(1.024 0 0 1.024 6.10352e-05 0)" d="M240.321 259.583C243.976 259.441 247.792 260.588 250.761 262.721C254.337 265.29 256.812 269.246 257.503 273.598C258.21 278.051 257.104 282.588 254.426 286.216C251.515 290.158 247.497 292.062 242.745 292.759C238.446 292.854 234.768 292.185 231.259 289.575C227.665 286.9 225.25 282.762 224.67 278.321C224.102 273.971 225.402 269.47 228.086 266.015C231.18 262.031 235.427 260.209 240.321 259.583Z"/>
</svg>
